<svg xmlns="http://www.w3.org/2000/svg" width="24" height="24" viewBox="0 0 24 24">
    <g fill="none" fill-rule="evenodd">
        <path d="M0 0h24.067v24.067H0z"/>
        <path fill-rule="nonzero" stroke="#C7A215" stroke-linejoin="round" stroke-width=".5" d="M21.058 2.216a.47.47 0 0 0-.35.15l-.793.793c-.2.2-.511.2-.712 0l-.792-.792c-.2-.201-.511-.201-.712 0l-.792.792c-.2.2-.511.2-.712 0l-.792-.792c-.2-.201-.512-.201-.712 0l-.792.792c-.2.2-.512.2-.712 0l-.793-.792c-.2-.201-.511-.201-.712 0l-.792.792c-.2.2-.511.2-.712 0l-.802-.802c-.2-.201-.511-.201-.712 0l-.792.802c-.2.2-.512.2-.712 0l-.792-.802c-.2-.201-.512-.201-.712 0l-.792.802c-.201.2-.512.2-.712 0l-.793-.802a.501.501 0 0 0-.35-.14V21.86c.13 0 .26-.05.35-.15l.793-.793c.2-.2.511-.2.712 0l.792.792c.2.2.511.2.712 0l.792-.792c.2-.2.511-.2.712 0l.792.792c.2.2.511.2.712 0l.792-.792c.2-.2.512-.2.712 0l.792.792c.201.2.512.2.712 0l.793-.792c.2-.2.511-.2.712 0l.792.792c.2.2.511.2.712 0l.792-.792c.2-.2.511-.2.712 0l.792.792c.2.2.512.2.712 0l.792-.792c.2-.2.512-.2.712 0l.792.792c.1.1.231.15.351.15V2.217h.01zm-4.01 14.831H7.018a1.006 1.006 0 0 1-1.002-1.002c0-.552.451-1.003 1.002-1.003h10.028c.552 0 1.003.451 1.003 1.003 0 .551-.451 1.002-1.003 1.002zm0-4.01H7.018a1.006 1.006 0 0 1-1.002-1.004c0-.551.451-1.002 1.002-1.002h10.028c.552 0 1.003.45 1.003 1.002s-.451 1.003-1.003 1.003zm0-4.012H7.018a1.006 1.006 0 0 1-1.002-1.003c0-.551.451-1.003 1.002-1.003h10.028c.552 0 1.003.452 1.003 1.003 0 .552-.451 1.003-1.003 1.003z"/>
    </g>
</svg>
