<svg xmlns="http://www.w3.org/2000/svg" width="24" height="24" viewBox="0 0 24 24">
    <g fill="none" fill-rule="evenodd">
        <path d="M0 0h24.067v24.067H0z"/>
        <path fill-rule="nonzero" stroke="#C7A215" stroke-width=".5" d="M10.028 19.053v-5.014h4.011v5.014c0 .551.451 1.003 1.003 1.003h3.008c.552 0 1.003-.452 1.003-1.003v-7.02h1.705c.46 0 .682-.571.33-.872L12.706 3.61a1.01 1.01 0 0 0-1.343 0l-8.384 7.551a.5.5 0 0 0 .331.872h1.705v7.02c0 .551.451 1.003 1.003 1.003h3.008c.552 0 1.003-.452 1.003-1.003z"/>
    </g>
</svg>
