<svg xmlns="http://www.w3.org/2000/svg" width="24" height="24" viewBox="0 0 24 24">
    <g fill="none" fill-rule="evenodd">
        <path d="M0 0h24.067v24.067H0z"/>
        <path stroke="#C7A215" stroke-width=".5" d="M12.033 2.006c-5.535 0-10.027 4.492-10.027 10.027 0 5.536 4.492 10.028 10.027 10.028 5.536 0 10.028-4.492 10.028-10.028 0-5.535-4.492-10.027-10.028-10.027zm0 3.008a3.004 3.004 0 0 1 3.009 3.008 3.004 3.004 0 0 1-3.009 3.009 3.004 3.004 0 0 1-3.008-3.009 3.004 3.004 0 0 1 3.008-3.008zm0 14.24a7.22 7.22 0 0 1-6.016-3.23c.03-1.995 4.01-3.088 6.016-3.088 1.996 0 5.987 1.093 6.017 3.089a7.22 7.22 0 0 1-6.017 3.228z"/>
        <path d="M0 0h24.067v24.067H0z"/>
    </g>
</svg>
