<svg xmlns="http://www.w3.org/2000/svg" width="24" height="24" viewBox="0 0 24 24">
    <g fill="none" fill-rule="evenodd">
        <path d="M0 0h24.067v24.067H0z"/>
        <path d="M0 0h24.067v24.067H0z"/>
        <g stroke="#C7A215" stroke-width=".5" transform="translate(1.003 1.003)">
            <circle cx="11.031" cy="11.031" r="11.031"/>
            <path d="M19.9 8.499c-.713 2.757-1.385 5.944-3.997 7.517-.901.757-1.556 1.728-1.696 2.856-.565.058-1.18.017-1.753.041-.057-.114-.024-.247-.04-.378-.09-.65-.14-1.35-.705-1.762a1.011 1.011 0 0 0-.729.009c-.672.49-.598 1.39-.664 2.157-.557.04-1.195.033-1.752.04-.246-1.267-1.073-2.47-2.269-3.086-.745-.519-1.45-1.235-1.875-2.015-1-1.762-1.557-3.712-2.098-5.665-.065-.318-.229-.683.009-.971a.804.804 0 0 1 .646-.364c.222.033.468.116.59.346.211.395.263.857.422 1.272.72 1.926 1.941 3.96 3.891 5.048-.598-.807-1.073-1.672-1.564-2.536-.074-.19-.14-.404-.05-.601.165-.725 1.266-.923 1.614-.265.697 1.565 1.999 2.949 3.4 3.912 1.17-.856 2.227-1.993 2.899-3.227.246-.425.352-1.096.958-1.203a.916.916 0 0 1 .826.224c.172.221.352.444.27.757 0 .247-.204.424-.278.636-.401.733-.745 1.485-1.253 2.166.123-.009.238-.124.36-.19 1.983-1.54 3.121-3.721 3.596-6.035.132-.592.975-.782 1.31-.255.308.481-.003 1.077-.068 1.572z"/>
        </g>
    </g>
</svg>
